HIERARCHY
ROOT Hips
{
	OFFSET -0.001795 -0.223333 0.028219
	CHANNELS 6 Xposition Yposition Zposition Zrotation Yrotation Xrotation 
	JOINT LeftUpLeg
	{
		OFFSET 0.069520 -0.091406 -0.006815
		CHANNELS 3 Zrotation Yrotation Xrotation
		JOINT LeftLeg
		{
			OFFSET 0.034277 -0.375199 -0.004496
			CHANNELS 3 Zrotation Yrotation Xrotation
			JOINT LeftFoot
			{
				OFFSET -0.013596 -0.397961 -0.043693
				CHANNELS 3 Zrotation Yrotation Xrotation
				JOINT LeftToe
				{
					OFFSET 0.026358 -0.055791 0.119288
					CHANNELS 3 Zrotation Yrotation Xrotation
					End Site
					{
						OFFSET 0.000000 0.000000 0.000000
					}
				}
			}
		}
	}
	JOINT RightUpLeg
	{
		OFFSET -0.067670 -0.090522 -0.004320
		CHANNELS 3 Zrotation Yrotation Xrotation
		JOINT RightLeg
		{
			OFFSET -0.038290 -0.382569 -0.008850
			CHANNELS 3 Zrotation Yrotation Xrotation
			JOINT RightFoot
			{
				OFFSET 0.015774 -0.398415 -0.042312
				CHANNELS 3 Zrotation Yrotation Xrotation
				JOINT RightToe
				{
					OFFSET -0.025372 -0.048144 0.123348
					CHANNELS 3 Zrotation Yrotation Xrotation
					End Site
					{
						OFFSET 0.000000 0.000000 0.000000
					}
				}
			}
		}
	}
	JOINT Spine
	{
		OFFSET -0.002533 0.108963 -0.026696
		CHANNELS 3 Zrotation Yrotation Xrotation
		JOINT Spine1
		{
			OFFSET 0.005487 0.135180 0.001092
			CHANNELS 3 Zrotation Yrotation Xrotation
			JOINT Spine2
			{
				OFFSET 0.001457 0.052922 0.025425
				CHANNELS 3 Zrotation Yrotation Xrotation
				JOINT Neck
				{
					OFFSET -0.002778 0.213870 -0.042857
					CHANNELS 3 Zrotation Yrotation Xrotation
					JOINT Head
					{
						OFFSET 0.005152 0.064970 0.051349
						CHANNELS 3 Zrotation Yrotation Xrotation
						End Site
						{
							OFFSET 0.000000 0.000000 0.000000
						}
					}
				}
				JOINT LeftShoulder
				{
					OFFSET 0.078845 0.121749 -0.034090
					CHANNELS 3 Zrotation Yrotation Xrotation
					JOINT LeftArm
					{
						OFFSET 0.090977 0.030469 -0.008868
						CHANNELS 3 Zrotation Yrotation Xrotation
						JOINT LeftForeArm
						{
							OFFSET 0.259612 -0.012772 -0.027456
							CHANNELS 3 Zrotation Yrotation Xrotation
							JOINT LeftHand
							{
								OFFSET 0.249234 0.008986 -0.001171
								CHANNELS 3 Zrotation Yrotation Xrotation
								End Site
								{
									OFFSET 0.000000 0.000000 0.000000
								}
							}
						}
					}
				}
				JOINT RightShoulder
				{
					OFFSET -0.081759 0.118833 -0.038615
					CHANNELS 3 Zrotation Yrotation Xrotation
					JOINT RightArm
					{
						OFFSET -0.096012 0.032551 -0.009143
						CHANNELS 3 Zrotation Yrotation Xrotation
						JOINT RightForeArm
						{
							OFFSET -0.253742 -0.013329 -0.021401
							CHANNELS 3 Zrotation Yrotation Xrotation
							JOINT RightHand
							{
								OFFSET -0.255298 0.007772 -0.005559
								CHANNELS 3 Zrotation Yrotation Xrotation
								End Site
								{
									OFFSET 0.000000 0.000000 0.000000
								}
							}
						}
					}
				}
			}
		}
	}
}
MOTION
Frames: 6
Frame Time: 0.050000
0.000000 0.956381 0.000000 -0.120483 -8.661198 -0.344586 4.158798 0.499631 6.959017 -1.416923 0.341057 -6.715203 11.808654 21.289683 34.140436 0.000000 0.000000 0.000000 -6.463299 0.125993 5.170408 3.201825 -0.320089 -5.940328 -1.133659 -12.340359 28.524374 0.000000 0.000000 0.000000 6.821264 -0.288307 2.649261 -4.761958 1.625804 -24.977098 -1.700272 9.948981 30.158880 9.952473 -5.566933 -15.523804 0.000000 0.000000 0.000000 12.765471 5.590921 -0.534140 -9.024036 -14.136663 -1.271924 14.783219 1.807978 0.134148 0.000000 0.000000 0.000000 -3.825254 -15.467543 -5.210433 12.271660 15.145748 -1.204945 -13.679998 5.601447 -0.046884 0.000000 0.000000 0.000000 
0.000122 0.956289 0.000167 0.201593 -8.953163 -0.743044 4.284068 0.608047 8.357536 -2.394747 0.449466 -8.347459 11.825844 21.310599 34.253917 0.000000 0.000000 0.000000 -6.401329 0.119115 5.345683 2.483096 -0.295084 -6.032478 -1.468763 -12.968038 29.353222 0.000000 0.000000 0.000000 7.128654 -0.276655 2.564941 -5.159245 1.723420 -24.226993 -1.450183 10.519811 30.640918 9.903061 -5.785123 -14.008569 0.000000 0.000000 0.000000 12.644128 4.858603 -0.330053 -8.049693 -14.271526 -1.242914 13.979791 3.221544 0.237791 0.000000 0.000000 0.000000 -3.446879 -16.511441 -5.662312 11.927261 15.648277 -1.214498 -14.895133 5.330801 -0.022385 0.000000 0.000000 0.000000 
0.000187 0.957368 0.000155 0.017059 -7.312720 -0.457762 4.609836 0.473254 7.274872 -2.361845 0.408299 -7.157117 10.854477 20.483581 32.802498 0.000000 0.000000 0.000000 -6.237456 0.062778 5.440687 3.320719 -0.339009 -6.051897 -3.224490 -14.930385 29.558580 0.000000 0.000000 0.000000 6.591649 -0.179601 1.573225 -5.283083 1.784140 -23.702179 -0.886986 8.125171 30.908944 8.511410 -4.955013 -13.960170 0.000000 0.000000 0.000000 11.308914 4.744052 -0.601923 -8.092449 -13.308028 -1.257972 15.796208 2.561289 0.246118 0.000000 0.000000 0.000000 -3.623509 -15.700644 -5.291271 10.799771 14.723203 -1.244141 -13.624982 5.038354 -0.036582 0.000000 0.000000 0.000000 
0.000303 0.956917 0.000152 0.072500 -7.942485 -0.823413 4.777191 0.559006 8.404499 -3.059176 0.472510 -7.980350 11.094764 20.723316 32.052699 0.000000 0.000000 0.000000 -6.903674 0.122469 6.031664 4.006890 -0.352928 -6.421659 -2.150971 -13.587607 29.015661 0.000000 0.000000 0.000000 6.853715 -0.267689 2.523165 -5.739109 1.884281 -24.223197 -0.683918 8.706434 31.329675 9.045001 -5.496722 -13.246587 0.000000 0.000000 0.000000 11.836404 5.582175 -0.763103 -7.538314 -14.358936 -1.255353 15.327443 3.603840 0.336586 0.000000 0.000000 0.000000 -2.773393 -16.804435 -5.822720 10.076906 14.712561 -1.253305 -12.795908 4.680046 0.004578 0.000000 0.000000 0.000000 
0.000401 0.956797 0.000113 -0.180148 -7.686653 -0.425621 4.637063 0.530829 8.034119 -2.756010 0.447748 -7.761534 11.608443 21.357195 30.596987 0.000000 0.000000 0.000000 -6.470962 0.079316 5.961632 4.125247 -0.355739 -6.997587 -3.092422 -14.766690 29.270485 0.000000 0.000000 0.000000 6.707599 -0.194529 1.710570 -5.443166 1.819390 -23.672626 -0.366322 8.024101 31.309798 8.618955 -5.106308 -13.866722 0.000000 0.000000 0.000000 11.993193 5.363563 -0.749016 -8.604094 -13.406331 -1.285029 15.012531 4.058658 0.393465 0.000000 0.000000 0.000000 -3.318927 -15.935304 -5.399949 10.552591 14.441992 -1.253826 -12.074425 3.536517 0.082607 0.000000 0.000000 0.000000 
0.000433 0.956547 0.000068 -0.246603 -7.676501 -0.752161 5.004734 0.546859 8.553555 -3.270708 0.480190 -7.834201 11.353324 21.117453 29.897896 0.000000 0.000000 0.000000 -6.495068 0.052853 6.852087 4.136862 -0.353382 -7.522401 -2.423700 -13.769001 28.280264 0.000000 0.000000 0.000000 6.559987 -0.213081 1.995098 -5.320223 1.794893 -23.278032 -0.205204 7.955983 31.538768 8.685668 -5.191303 -13.778353 0.000000 0.000000 0.000000 11.787020 5.855802 -0.900459 -8.784630 -13.769464 -1.295726 14.816889 4.216977 0.406502 0.000000 0.000000 0.000000 -3.208563 -15.779776 -5.360022 11.053010 14.340146 -1.270550 -12.017015 3.453023 0.089141 0.000000 0.000000 0.000000 
